<svg id="Layer_1" data-name="Layer 1" xmlns="http://www.w3.org/2000/svg" viewBox="0 0 850.39 566.93"><defs><style>.cls-1{font-size:108.35px;font-family:AgencyFB-Bold, Agency FB;font-weight:700;}.cls-1,.cls-2{fill:#628190;}.cls-2{fill-rule:evenodd;}</style></defs><text class="cls-1" transform="translate(281.43 467.54)">Be here</text><path class="cls-2" d="M391.93,348.23A192.1,192.1,0,0,0,416.26,359l8.94,3.22,8.93-3.22a192.89,192.89,0,0,0,24.33-10.8,238.41,238.41,0,0,0,24.39-14.84,276,276,0,0,0,23.21-18,278.72,278.72,0,0,0,21.28-20.48c20.33-21.79,33.69-43.57,41.37-64.35,8.54-23.12,10-45,6.32-64.25a98.41,98.41,0,0,0-8-24.22A94.28,94.28,0,0,0,512.93,93.8a100.12,100.12,0,0,0-43.23-4.91,114.35,114.35,0,0,0-43.39,13.91l-1.12.61-1.11-.61a114.35,114.35,0,0,0-43.39-13.91,100.12,100.12,0,0,0-43.23,4.91,94.25,94.25,0,0,0-54.11,48.26,99.25,99.25,0,0,0-8,24.22c-3.73,19.25-2.22,41.13,6.32,64.26,7.68,20.77,21,42.55,41.38,64.34a276.89,276.89,0,0,0,21.28,20.48l1,.86c3.27-2.34,6.57-3.17,11.44-2.52h0c4.76.64,11.05,2.81,20.85,6.52,9.41,3.54,17.43,6.31,25,7.67a52.74,52.74,0,0,0,22.3-.51,44.52,44.52,0,0,0,16.94-8.61c-22.94,5.44-33.63,5.3-38.47,3.62a8.09,8.09,0,0,1-4.8-3.77,6.38,6.38,0,0,1-.46-4.67c.93-3.46,17.07-9.71,20.46-11.57-2.51-1.28-5-2.65-7.53-4.1-4.45-2.57-8.93-5.43-13.39-8.51a217.59,217.59,0,0,1-18.55-14.44,227,227,0,0,1-17.22-16.6c-14-15-23.35-29.35-28.9-42.55h0c-6.28-15-7.71-28.49-5.49-39.94a46.24,46.24,0,0,1,3.59-11,41.31,41.31,0,0,1,6.16-9.44,40,40,0,0,1,8-7.08,42.27,42.27,0,0,1,9.65-4.82h0a48.36,48.36,0,0,1,26.86-1c8.86,2,18.16,6.4,27.33,13.43l16.1,12.34,16.1-12.34c9.16-7,18.46-11.39,27.32-13.43a48.36,48.36,0,0,1,26.86,1,42.34,42.34,0,0,1,9.66,4.82,40,40,0,0,1,8,7.08,41.61,41.61,0,0,1,6.15,9.44,46.7,46.7,0,0,1,3.6,11c2.21,11.45.78,25-5.5,39.94-5.54,13.2-14.9,27.54-28.91,42.55a228.74,228.74,0,0,1-17.21,16.6,217.72,217.72,0,0,1-18.56,14.44c-4.45,3.08-8.94,5.94-13.39,8.51-1.42.82-2.85,1.62-4.27,2.39-3.76,2.3-7.55,4.43-11.41,6.54-9.93,5.45-18.55,6.08-16.71,9.18.78,1.32,4.93,2.17,7.83,2.35,8.49.52,29.5-3.72,47.91-12.62l-6.63,8.29s-11.71,15.43-29.53,19.69a59.32,59.32,0,0,1-25.12.59c-8.14-1.46-16.48-4.33-26.21-8-9.34-3.52-15.25-5.59-19.34-6.13h0A9.47,9.47,0,0,0,351,321c5.38,4.37,10.91,8.53,16.54,12.43A237.2,237.2,0,0,0,391.93,348.23Z"/></svg>