<svg id="Layer_1" data-name="Layer 1" xmlns="http://www.w3.org/2000/svg" viewBox="0 0 850.39 566.93"><defs><style>.cls-1{fill:#628190;fill-rule:evenodd;}</style></defs><path class="cls-1" d="M391.93,415.46a193.53,193.53,0,0,0,24.33,10.8l8.94,3.22,8.93-3.22a192.89,192.89,0,0,0,24.33-10.8,238.41,238.41,0,0,0,24.39-14.84,276,276,0,0,0,23.21-18,280.66,280.66,0,0,0,21.28-20.48c20.33-21.79,33.69-43.58,41.37-64.35,8.54-23.12,10-45,6.32-64.26a98.47,98.47,0,0,0-8-24.21A94.28,94.28,0,0,0,512.93,161a100,100,0,0,0-43.23-4.91A114.18,114.18,0,0,0,426.31,170l-1.12.61-1.11-.61a114.18,114.18,0,0,0-43.39-13.91A100,100,0,0,0,337.46,161a94.25,94.25,0,0,0-54.11,48.26,99.32,99.32,0,0,0-8,24.21c-3.73,19.26-2.22,41.14,6.32,64.26,7.68,20.77,21,42.56,41.38,64.35a278.8,278.8,0,0,0,21.28,20.48l1,.86c3.27-2.34,6.57-3.18,11.44-2.52h0c4.76.64,11.05,2.81,20.85,6.51,9.41,3.55,17.43,6.32,25,7.68a52.58,52.58,0,0,0,22.3-.52A44.38,44.38,0,0,0,441.86,386c-22.94,5.45-33.63,5.31-38.47,3.62a8,8,0,0,1-4.8-3.76,6.41,6.41,0,0,1-.46-4.68c.93-3.46,17.07-9.7,20.46-11.56-2.51-1.29-5-2.66-7.53-4.1-4.45-2.57-8.93-5.43-13.39-8.52a215.46,215.46,0,0,1-18.55-14.43A227,227,0,0,1,361.9,326c-14-15-23.35-29.35-28.9-42.56h0c-6.28-14.95-7.71-28.49-5.49-39.93a46.09,46.09,0,0,1,3.59-11,41.37,41.37,0,0,1,6.16-9.45,40,40,0,0,1,8-7.08,42.24,42.24,0,0,1,9.65-4.81h0A48.27,48.27,0,0,1,381.77,210c8.86,2.05,18.16,6.41,27.33,13.44l16.1,12.33,16.1-12.33c9.16-7,18.46-11.39,27.32-13.44a48.27,48.27,0,0,1,26.86,1.05,42.31,42.31,0,0,1,9.66,4.81,40.63,40.63,0,0,1,8,7.08,41.67,41.67,0,0,1,6.15,9.45,46.55,46.55,0,0,1,3.6,11c2.21,11.44.78,25-5.5,39.93C511.86,296.6,502.5,311,488.49,326a228.74,228.74,0,0,1-17.21,16.6A215.59,215.59,0,0,1,452.72,357c-4.45,3.09-8.94,5.95-13.39,8.52-1.42.82-2.85,1.61-4.27,2.39-3.76,2.29-7.55,4.42-11.41,6.53-9.93,5.45-18.55,6.09-16.71,9.18.78,1.33,4.93,2.18,7.83,2.35,8.49.52,29.5-3.71,47.91-12.61l-6.63,8.28s-11.71,15.43-29.53,19.69a59.32,59.32,0,0,1-25.12.6c-8.14-1.46-16.48-4.33-26.21-8-9.34-3.53-15.25-5.59-19.34-6.14h0a9.48,9.48,0,0,0-4.84.4c5.38,4.38,10.91,8.54,16.54,12.44A239,239,0,0,0,391.93,415.46Z"/></svg>